<?xml version="1.0" encoding="UTF-8" standalone="no"?>
<!-- Created with Inkscape (http://www.inkscape.org/) -->

<svg
   width="66.542694mm"
   height="45.887543mm"
   viewBox="0 0 66.542694 45.887543"
   version="1.1"
   id="svg5"
   inkscape:version="1.1 (c68e22c387, 2021-05-23)"
   sodipodi:docname="mid_split.svg"
   xmlns:inkscape="http://www.inkscape.org/namespaces/inkscape"
   xmlns:sodipodi="http://sodipodi.sourceforge.net/DTD/sodipodi-0.dtd"
   xmlns="http://www.w3.org/2000/svg"
   xmlns:svg="http://www.w3.org/2000/svg">
  <sodipodi:namedview
     id="namedview7"
     pagecolor="#000000"
     bordercolor="#666666"
     borderopacity="1.0"
     inkscape:pageshadow="2"
     inkscape:pageopacity="0"
     inkscape:pagecheckerboard="0"
     inkscape:document-units="mm"
     showgrid="false"
     fit-margin-top="2"
     fit-margin-left="1"
     fit-margin-right="1"
     fit-margin-bottom="2"
     inkscape:zoom="4.3994184"
     inkscape:cx="-6.6326759"
     inkscape:cy="17.09089"
     inkscape:window-width="3840"
     inkscape:window-height="2066"
     inkscape:window-x="-11"
     inkscape:window-y="-11"
     inkscape:window-maximized="1"
     inkscape:current-layer="layer1"
     inkscape:rotation="-2" />
  <defs
     id="defs2">
    <marker
       style="overflow:visible"
       id="marker7099"
       refX="0"
       refY="0"
       orient="auto"
       inkscape:stockid="Arrow1Mend"
       inkscape:isstock="true">
      <path
         transform="matrix(-0.4,0,0,-0.4,-4,0)"
         style="fill:context-stroke;fill-rule:evenodd;stroke:context-stroke;stroke-width:1pt"
         d="M 0,0 5,-5 -12.5,0 5,5 Z"
         id="path7097" />
    </marker>
    <marker
       style="overflow:visible"
       id="marker5671"
       refX="0"
       refY="0"
       orient="auto"
       inkscape:stockid="Arrow1Mend"
       inkscape:isstock="true">
      <path
         transform="matrix(-0.4,0,0,-0.4,-4,0)"
         style="fill:context-stroke;fill-rule:evenodd;stroke:context-stroke;stroke-width:1pt"
         d="M 0,0 5,-5 -12.5,0 5,5 Z"
         id="path5669" />
    </marker>
    <marker
       style="overflow:visible"
       id="Arrow1Mend"
       refX="0"
       refY="0"
       orient="auto"
       inkscape:stockid="Arrow1Mend"
       inkscape:isstock="true">
      <path
         transform="matrix(-0.4,0,0,-0.4,-4,0)"
         style="fill:context-stroke;fill-rule:evenodd;stroke:context-stroke;stroke-width:1pt"
         d="M 0,0 5,-5 -12.5,0 5,5 Z"
         id="path5394" />
    </marker>
    <marker
       style="overflow:visible"
       id="Arrow1Lend"
       refX="0"
       refY="0"
       orient="auto"
       inkscape:stockid="Arrow1Lend"
       inkscape:isstock="true">
      <path
         transform="matrix(-0.8,0,0,-0.8,-10,0)"
         style="fill:context-stroke;fill-rule:evenodd;stroke:context-stroke;stroke-width:1pt"
         d="M 0,0 5,-5 -12.5,0 5,5 Z"
         id="path5388" />
    </marker>
    <marker
       style="overflow:visible"
       id="Arrow1Lstart"
       refX="0"
       refY="0"
       orient="auto"
       inkscape:stockid="Arrow1Lstart"
       inkscape:isstock="true">
      <path
         transform="matrix(0.8,0,0,0.8,10,0)"
         style="fill:context-stroke;fill-rule:evenodd;stroke:context-stroke;stroke-width:1pt"
         d="M 0,0 5,-5 -12.5,0 5,5 Z"
         id="path5385" />
    </marker>
    <marker
       style="overflow:visible"
       id="marker5671-8"
       refX="0"
       refY="0"
       orient="auto"
       inkscape:stockid="Arrow1Mend"
       inkscape:isstock="true">
      <path
         transform="matrix(-0.4,0,0,-0.4,-4,0)"
         style="fill:context-stroke;fill-rule:evenodd;stroke:context-stroke;stroke-width:1pt"
         d="M 0,0 5,-5 -12.5,0 5,5 Z"
         id="path5669-2" />
    </marker>
    <marker
       style="overflow:visible"
       id="marker6313"
       refX="0"
       refY="0"
       orient="auto"
       inkscape:stockid="Arrow1Mend"
       inkscape:isstock="true">
      <path
         transform="matrix(-0.4,0,0,-0.4,-4,0)"
         style="fill:context-stroke;fill-rule:evenodd;stroke:context-stroke;stroke-width:1pt"
         d="M 0,0 5,-5 -12.5,0 5,5 Z"
         id="path6311" />
    </marker>
  </defs>
  <g
     inkscape:label="Layer 1"
     inkscape:groupmode="layer"
     id="layer1"
     transform="translate(-4.5811534,-3.0869189)">
    <path
       style="fill:#ff0000;fill-opacity:1;stroke:#ffffff;stroke-width:0.264583px;stroke-linecap:butt;stroke-linejoin:miter;stroke-opacity:1"
       d="M 5.6134002,22.326026 37.172021,14.394181 69.231958,6.3363364"
       id="path857"
       sodipodi:nodetypes="ccc" />
    <path
       id="path4152"
       style="fill:none;stroke:#ff0000;stroke-width:0.1"
       d="m 37.901096,14.394973 a 0.7335695,0.7335695 0 0 1 -0.73357,0.733569 0.7335695,0.7335695 0 0 1 -0.733569,-0.733569 0.7335695,0.7335695 0 0 1 0.733569,-0.73357 0.7335695,0.7335695 0 0 1 0.73357,0.73357 z" />
    <g
       id="path4855">
      <path
         style="color:#000000;fill:#ff0000;-inkscape-stroke:none"
         d="m 34.787109,5.3535156 -0.146484,0.039063 2.408203,8.9863274 0.144531,-0.03906 z"
         id="path7526" />
      <g
         id="g7514">
        <g
           id="path7516">
          <path
             style="color:#000000;fill:#ff0000;fill-rule:evenodd;stroke-width:0.06pt;-inkscape-stroke:none"
             d="m 34.869212,5.9520042 0.367423,0.212132 -0.561538,-0.9365764 -0.01802,1.0918679 z"
             id="path7520" />
          <path
             style="color:#000000;fill:#ff0000;fill-rule:evenodd;-inkscape-stroke:none"
             d="m 34.636719,5.0878906 -0.02148,1.3847656 0.269532,-0.4667968 0.464843,0.2695312 z m 0.07617,0.2792969 0.410156,0.6835937 -0.267578,-0.1542968 -0.02148,0.035156 -0.134765,0.234375 z"
             id="path7522" />
        </g>
      </g>
    </g>
    <g
       id="path5825">
      <path
         style="color:#000000;fill:#ff0000;-inkscape-stroke:none"
         d="m 37.193359,14.339844 -0.144531,0.03906 2.453125,9.152344 0.144531,-0.03906 z"
         id="path8189" />
      <g
         id="g8177">
        <g
           id="path8179">
          <path
             style="color:#000000;fill:#ff0000;fill-rule:evenodd;stroke-width:0.06pt;-inkscape-stroke:none"
             d="m 39.418925,22.931759 -0.367424,-0.212132 0.561538,0.936577 0.01802,-1.091868 z"
             id="path8183" />
          <path
             style="color:#000000;fill:#ff0000;fill-rule:evenodd;-inkscape-stroke:none"
             d="m 39.673828,22.410156 -0.269531,0.466797 -0.466797,-0.269531 0.712891,1.189453 z m -0.08398,0.306641 -0.01563,0.798828 -0.410157,-0.683594 0.269532,0.154297 0.01953,-0.03516 z"
             id="path8185" />
        </g>
      </g>
    </g>
    <path
       style="fill:#ff0000;fill-opacity:1;stroke:#ffffff;stroke-width:0.065;stroke-linecap:butt;stroke-linejoin:miter;stroke-miterlimit:4;stroke-dasharray:0.39, 0.065;stroke-dashoffset:0;stroke-opacity:1"
       d="M 6.4368674,44.427068 37.995488,36.495223 70.055425,28.437378"
       id="path857-4"
       sodipodi:nodetypes="ccc" />
    <path
       style="fill:none;fill-opacity:0.708408;stroke:#ffffff;stroke-width:0.264583px;stroke-linecap:butt;stroke-linejoin:miter;stroke-opacity:1"
       d="M 6.4368668,44.427068 40.55146,46.268058 70.055425,28.437378"
       id="path857-4-6"
       sodipodi:nodetypes="ccc" />
    <path
       id="path4152-7"
       style="fill:none;stroke:#ff0000;stroke-width:0.1"
       d="m 38.724563,36.496014 a 0.7335695,0.7335695 0 0 1 -0.73357,0.733569 0.7335695,0.7335695 0 0 1 -0.733569,-0.733569 0.7335695,0.7335695 0 0 1 0.733569,-0.73357 0.7335695,0.7335695 0 0 1 0.73357,0.73357 z" />
    <path
       id="path4152-7-7"
       style="fill:none;stroke:#ff0000;stroke-width:0.1"
       d="m 41.280536,46.190891 a 0.7335695,0.7335695 0 0 1 -0.733569,0.73357 0.7335695,0.7335695 0 0 1 -0.73357,-0.73357 0.7335695,0.7335695 0 0 1 0.73357,-0.733569 0.7335695,0.7335695 0 0 1 0.733569,0.733569 z" />
    <g
       id="g8382">
      <path
         style="color:#000000;fill:#ff0000;-inkscape-stroke:none"
         d="m 38.060547,36.507812 -0.146485,0.03906 2.337891,8.724609 0.144531,-0.03906 z"
         id="path8341" />
      <g
         id="g8329">
        <g
           id="path8331">
          <path
             style="color:#000000;fill:#ff0000;fill-rule:evenodd;stroke-width:0.06pt;-inkscape-stroke:none"
             d="m 40.168311,44.672512 -0.367386,-0.212198 0.56137,0.936677 0.01821,-1.091865 z"
             id="path8335" />
          <path
             style="color:#000000;fill:#ff0000;fill-rule:evenodd;-inkscape-stroke:none"
             d="m 40.423828,44.152344 -0.271484,0.466797 -0.464844,-0.271485 0.712891,1.189453 z m -0.08594,0.308593 -0.01367,0.794922 -0.410157,-0.685547 0.269532,0.15625 0.01953,-0.0332 z"
             id="path8337" />
        </g>
      </g>
    </g>
  </g>
</svg>
