<?xml version="1.0" encoding="UTF-8" standalone="no"?>
<!-- Created with Inkscape (http://www.inkscape.org/) -->

<svg
   width="147.95158mm"
   height="29.453344mm"
   viewBox="0 0 147.95158 29.453344"
   version="1.1"
   id="svg5"
   sodipodi:docname="diagram_0.svg"
   inkscape:version="1.1 (c68e22c387, 2021-05-23)"
   xmlns:inkscape="http://www.inkscape.org/namespaces/inkscape"
   xmlns:sodipodi="http://sodipodi.sourceforge.net/DTD/sodipodi-0.dtd"
   xmlns="http://www.w3.org/2000/svg"
   xmlns:svg="http://www.w3.org/2000/svg">
  <sodipodi:namedview
     id="namedview7"
     pagecolor="#000000"
     bordercolor="#666666"
     borderopacity="1.0"
     inkscape:pageshadow="2"
     inkscape:pageopacity="0"
     inkscape:pagecheckerboard="0"
     inkscape:document-units="mm"
     showgrid="false"
     inkscape:zoom="4.3994184"
     inkscape:cx="383.45978"
     inkscape:cy="107.74151"
     inkscape:window-width="3840"
     inkscape:window-height="2066"
     inkscape:window-x="-11"
     inkscape:window-y="-11"
     inkscape:window-maximized="1"
     inkscape:current-layer="layer1"
     fit-margin-top="1"
     fit-margin-left="1"
     fit-margin-right="1"
     fit-margin-bottom="1" />
  <defs
     id="defs2">
    <marker
       style="overflow:visible"
       id="Arrow1Lend"
       refX="0"
       refY="0"
       orient="auto"
       inkscape:stockid="Arrow1Lend"
       inkscape:isstock="true">
      <path
         transform="matrix(-0.8,0,0,-0.8,-10,0)"
         style="fill:context-stroke;fill-rule:evenodd;stroke:context-stroke;stroke-width:1pt"
         d="M 0,0 5,-5 -12.5,0 5,5 Z"
         id="path27047" />
    </marker>
  </defs>
  <g
     inkscape:label="Layer 1"
     inkscape:groupmode="layer"
     id="layer1"
     transform="translate(-12.37145,-13.743993)">
    <rect
       style="fill:none;stroke:#00ff00;stroke-width:0.24962"
       id="rect846"
       width="39.224144"
       height="23.234449"
       x="13.49626"
       y="15.471692" />
    <rect
       style="fill:none;stroke:#00ff00;stroke-width:0.269931"
       id="rect846-7"
       width="39.203835"
       height="27.183413"
       x="69.947327"
       y="14.878959" />
    <text
       xml:space="preserve"
       style="font-style:normal;font-weight:normal;font-size:5.64444px;line-height:1.25;font-family:sans-serif;fill:#000000;fill-opacity:1;stroke:none;stroke-width:0.264583"
       x="20.733337"
       y="22.113401"
       id="text2324"><tspan
         sodipodi:role="line"
         id="tspan2322"
         style="font-size:5.64444px;fill:#ffffff;stroke-width:0.264583"
         x="20.733337"
         y="22.113401">TEXTURE</tspan></text>
    <text
       xml:space="preserve"
       style="font-style:normal;font-weight:normal;font-size:5.64444px;line-height:1.25;font-family:sans-serif;fill:#000000;fill-opacity:1;stroke:none;stroke-width:0.264583"
       x="76.813423"
       y="21.406891"
       id="text2324-6"><tspan
         sodipodi:role="line"
         id="tspan2322-2"
         style="font-size:5.64444px;fill:#ffffff;stroke-width:0.264583"
         x="76.813423"
         y="21.406891">SHADER</tspan></text>
    <text
       xml:space="preserve"
       style="font-style:normal;font-weight:normal;font-size:7.05556px;line-height:1.25;font-family:sans-serif;fill:#000000;fill-opacity:1;stroke:none;stroke-width:0.264583"
       x="26.85705"
       y="33.595364"
       id="text18102"><tspan
         sodipodi:role="line"
         id="tspan18100"
         style="font-size:7.05556px;fill:#ffffff;stroke-width:0.264583"
         x="26.85705"
         y="33.595364">0.5</tspan></text>
    <text
       xml:space="preserve"
       style="font-style:normal;font-weight:normal;font-size:7.05556px;line-height:1.25;font-family:sans-serif;fill:#000000;fill-opacity:1;stroke:none;stroke-width:0.264583"
       x="136.51736"
       y="35.501133"
       id="text18102-5"><tspan
         sodipodi:role="line"
         id="tspan18100-9"
         style="font-size:7.05556px;fill:#ffffff;stroke-width:0.264583"
         x="136.51736"
         y="35.501133">0.5</tspan></text>
    <path
       style="fill:#ffffff;stroke:#ffffff;stroke-width:0.304908;stroke-linecap:butt;stroke-linejoin:miter;stroke-miterlimit:4;stroke-dasharray:none;stroke-opacity:1"
       d="M 52.6789,26.96134 H 64.563833"
       id="path27009" />
    <path
       style="fill:#ffffff;fill-opacity:1;stroke:#ffffff;stroke-width:0.143444px;stroke-linecap:butt;stroke-linejoin:miter;stroke-opacity:1"
       d="m 63.699254,24.586631 0.864579,2.374709 -0.864579,2.501514 5.637053,-2.443875 z"
       id="path27820-0"
       sodipodi:nodetypes="ccccc" />
    <path
       style="fill:#ffffff;stroke:#ffffff;stroke-width:0.291498;stroke-linecap:butt;stroke-linejoin:miter;stroke-miterlimit:4;stroke-dasharray:none;stroke-opacity:1"
       d="m 109.21583,35.720759 h 10.86254"
       id="path27009-6" />
    <path
       style="fill:#ffffff;fill-opacity:1;stroke:#ffffff;stroke-width:0.143444px;stroke-linecap:butt;stroke-linejoin:miter;stroke-opacity:1"
       d="m 119.21379,33.34605 0.86458,2.374709 -0.86458,2.501514 5.63705,-2.443875 z"
       id="path27820-0-3"
       sodipodi:nodetypes="ccccc" />
    <g
       aria-label="read 0.5^2.2"
       id="text47844"
       style="font-size:2.82222px;line-height:1.25;stroke-width:0.264583">
      <path
         d="m 72.787672,26.117701 q -0.04272,-0.02481 -0.09371,-0.03583 -0.04961,-0.0124 -0.110243,-0.0124 -0.214974,0 -0.330729,0.14056 -0.114377,0.139182 -0.114377,0.401009 V 27.42408 H 71.88368 v -1.543402 h 0.254937 v 0.239779 q 0.07993,-0.14056 0.208084,-0.208084 0.128157,-0.0689 0.311436,-0.0689 0.02618,0 0.05788,0.0041 0.03169,0.0028 0.07028,0.0096 z"
         style="fill:#ffffff"
         id="path91704" />
      <path
         d="m 74.311781,26.588989 v 0.124024 h -1.165819 q 0.01654,0.261827 0.157096,0.39963 0.141938,0.136426 0.394119,0.136426 0.146072,0 0.282497,-0.03583 0.137804,-0.03583 0.272852,-0.107487 v 0.239779 q -0.136426,0.05788 -0.279742,0.08819 -0.143316,0.03032 -0.290766,0.03032 -0.369313,0 -0.585665,-0.214974 -0.214974,-0.214974 -0.214974,-0.581532 0,-0.37896 0.203949,-0.600824 0.205328,-0.223242 0.552593,-0.223242 0.311437,0 0.49196,0.201194 0.1819,0.199815 0.1819,0.544324 z m -0.253558,-0.07441 q -0.0028,-0.208083 -0.117134,-0.332107 -0.112999,-0.124023 -0.300412,-0.124023 -0.212217,0 -0.340375,0.119889 -0.126779,0.11989 -0.146072,0.337619 z"
         style="fill:#ffffff"
         id="path91706" />
      <path
         d="m 75.42937,26.648245 q -0.307303,0 -0.425814,0.07028 -0.118511,0.07028 -0.118511,0.239778 0,0.135048 0.08819,0.214974 0.08957,0.07855 0.242535,0.07855 0.21084,0 0.337619,-0.148828 0.128157,-0.150206 0.128157,-0.398252 v -0.0565 z m 0.505739,-0.104731 V 27.42408 H 75.68155 v -0.234266 q -0.08682,0.140559 -0.216351,0.208083 -0.129536,0.06615 -0.316949,0.06615 -0.237022,0 -0.377582,-0.132292 -0.139182,-0.133669 -0.139182,-0.356911 0,-0.260449 0.173633,-0.392741 0.17501,-0.132291 0.520898,-0.132291 h 0.355533 v -0.02481 q 0,-0.175011 -0.115755,-0.270095 -0.114377,-0.09646 -0.32246,-0.09646 -0.132292,0 -0.257693,0.0317 -0.125402,0.03169 -0.241157,0.09508 v -0.234266 q 0.139182,-0.05374 0.270095,-0.07993 0.130914,-0.02756 0.254937,-0.02756 0.334863,0 0.500228,0.173633 0.165364,0.173633 0.165364,0.52641 z"
         style="fill:#ffffff"
         id="path91708" />
      <path
         d="m 77.472999,26.114945 v -0.835091 h 0.253559 v 2.144226 h -0.253559 v -0.23151 q -0.07993,0.137803 -0.202572,0.205327 -0.121267,0.06615 -0.292143,0.06615 -0.279742,0 -0.456131,-0.223242 -0.17501,-0.223242 -0.17501,-0.587044 0,-0.363802 0.17501,-0.587044 0.176389,-0.223242 0.456131,-0.223242 0.170876,0 0.292143,0.06752 0.122646,0.06615 0.202572,0.20395 z m -0.864029,0.538812 q 0,0.279742 0.114377,0.439594 0.115755,0.158474 0.316948,0.158474 0.201194,0 0.316949,-0.158474 0.115755,-0.159852 0.115755,-0.439594 0,-0.279741 -0.115755,-0.438216 -0.115755,-0.159852 -0.316949,-0.159852 -0.201193,0 -0.316948,0.159852 -0.114377,0.158475 -0.114377,0.438216 z"
         style="fill:#ffffff"
         id="path91710" />
      <path
         d="m 79.777077,25.549949 q -0.214974,0 -0.323839,0.212218 -0.107487,0.21084 -0.107487,0.635275 0,0.423058 0.107487,0.635275 0.108865,0.21084 0.323839,0.21084 0.216352,0 0.323839,-0.21084 0.108865,-0.212217 0.108865,-0.635275 0,-0.424435 -0.108865,-0.635275 -0.107487,-0.212218 -0.323839,-0.212218 z m 0,-0.220486 q 0.345887,0 0.527788,0.27423 0.183279,0.272851 0.183279,0.793749 0,0.51952 -0.183279,0.79375 -0.181901,0.272851 -0.527788,0.272851 -0.345887,0 -0.529166,-0.272851 -0.181901,-0.27423 -0.181901,-0.79375 0,-0.520898 0.181901,-0.793749 0.183279,-0.27423 0.529166,-0.27423 z"
         style="fill:#ffffff"
         id="path91712" />
      <path
         d="m 80.977347,27.074058 h 0.290766 v 0.350022 h -0.290766 z"
         style="fill:#ffffff"
         id="path91714" />
      <path
         d="m 81.877206,25.36667 h 1.092783 v 0.234267 h -0.837846 v 0.504361 q 0.06063,-0.02067 0.121267,-0.03032 0.06063,-0.01103 0.121267,-0.01103 0.344509,0 0.545703,0.188791 0.201193,0.188791 0.201193,0.511252 0,0.332107 -0.206705,0.516764 -0.206706,0.183279 -0.58291,0.183279 -0.129536,0 -0.264583,-0.02205 -0.13367,-0.02205 -0.276986,-0.06615 v -0.279742 q 0.124024,0.06752 0.256315,0.100597 0.132292,0.03307 0.279742,0.03307 0.2384,0 0.377582,-0.125402 0.139182,-0.125401 0.139182,-0.340375 0,-0.214974 -0.139182,-0.340375 -0.139182,-0.125401 -0.377582,-0.125401 -0.111621,0 -0.223242,0.0248 -0.110243,0.02481 -0.225998,0.07717 z"
         style="fill:#ffffff"
         id="path91716" />
      <path
         d="m 84.685645,25.36667 0.748274,0.767567 h -0.276985 l -0.606337,-0.544325 -0.606336,0.544325 H 83.667275 L 84.41555,25.36667 Z"
         style="fill:#ffffff"
         id="path91718" />
      <path
         d="m 86.274522,27.189814 h 0.971516 v 0.234266 h -1.306379 v -0.234266 q 0.158474,-0.163987 0.431325,-0.439594 0.27423,-0.276986 0.34451,-0.356912 0.133669,-0.150206 0.186035,-0.253559 0.05374,-0.104731 0.05374,-0.205327 0,-0.163987 -0.115755,-0.267339 -0.114377,-0.103353 -0.299034,-0.103353 -0.130914,0 -0.276986,0.04547 -0.144694,0.04547 -0.310058,0.137804 v -0.28112 q 0.168121,-0.06752 0.314192,-0.101975 0.146072,-0.03445 0.26734,-0.03445 0.319704,0 0.509873,0.159853 0.19017,0.159852 0.19017,0.427191 0,0.12678 -0.04823,0.241157 -0.04685,0.112999 -0.172254,0.267339 -0.03445,0.03996 -0.219108,0.23151 -0.184657,0.190169 -0.520898,0.533301 z"
         style="fill:#ffffff"
         id="path91720" />
      <path
         d="m 87.830326,27.074058 h 0.290766 v 0.350022 h -0.290766 z"
         style="fill:#ffffff"
         id="path91722" />
      <path
         d="m 88.967207,27.189814 h 0.971516 v 0.234266 h -1.306379 v -0.234266 q 0.158474,-0.163987 0.431325,-0.439594 0.27423,-0.276986 0.34451,-0.356912 0.133669,-0.150206 0.186035,-0.253559 0.05374,-0.104731 0.05374,-0.205327 0,-0.163987 -0.115755,-0.267339 -0.114377,-0.103353 -0.299034,-0.103353 -0.130914,0 -0.276985,0.04547 -0.144694,0.04547 -0.310059,0.137804 v -0.28112 q 0.168121,-0.06752 0.314193,-0.101975 0.146072,-0.03445 0.267339,-0.03445 0.319704,0 0.509874,0.159853 0.190169,0.159852 0.190169,0.427191 0,0.12678 -0.04823,0.241157 -0.04685,0.112999 -0.172254,0.267339 -0.03445,0.03996 -0.219108,0.23151 -0.184657,0.190169 -0.520898,0.533301 z"
         style="fill:#ffffff"
         id="path91724" />
    </g>
    <g
       aria-label="write 0.5^2.2^(1/2.2)"
       id="text47844-5"
       style="font-size:2.82222px;line-height:1.25;stroke-width:0.264583">
      <path
         d="m 77.136333,35.111918 h 0.253559 l 0.316949,1.204404 0.31557,-1.204404 h 0.299034 l 0.316949,1.204404 0.31557,-1.204404 h 0.253559 l -0.403765,1.543401 h -0.299034 l -0.332107,-1.265038 -0.333485,1.265038 h -0.299034 z"
         style="fill:#ffffff"
         id="path91745" />
      <path
         d="m 80.486342,35.34894 q -0.04272,-0.02481 -0.09371,-0.03583 -0.04961,-0.0124 -0.110243,-0.0124 -0.214973,0 -0.330729,0.140559 -0.114377,0.139182 -0.114377,0.401009 v 0.813042 h -0.254937 v -1.543401 h 0.254937 v 0.239778 q 0.07993,-0.14056 0.208084,-0.208084 0.128157,-0.0689 0.311436,-0.0689 0.02618,0 0.05788,0.0041 0.03169,0.0028 0.07028,0.0096 z"
         style="fill:#ffffff"
         id="path91747" />
      <path
         d="m 80.752303,35.111918 h 0.253559 v 1.543401 h -0.253559 z m 0,-0.600825 h 0.253559 v 0.321083 h -0.253559 z"
         style="fill:#ffffff"
         id="path91749" />
      <path
         d="m 81.787209,34.673702 v 0.438216 h 0.522276 v 0.197059 h -0.522276 v 0.837847 q 0,0.188791 0.05099,0.242534 0.05237,0.05374 0.21084,0.05374 h 0.260449 v 0.212218 h -0.260449 q -0.293522,0 -0.405143,-0.108865 -0.111621,-0.110243 -0.111621,-0.39963 v -0.837847 h -0.186035 v -0.197059 h 0.186035 v -0.438216 z"
         style="fill:#ffffff"
         id="path91751" />
      <path
         d="m 83.96313,35.820229 v 0.124023 h -1.16582 q 0.01654,0.261827 0.157096,0.399631 0.141938,0.136425 0.394119,0.136425 0.146072,0 0.282498,-0.03583 0.137803,-0.03583 0.272851,-0.107487 v 0.239778 q -0.136426,0.05788 -0.279741,0.08819 -0.143316,0.03032 -0.290766,0.03032 -0.369314,0 -0.585666,-0.214974 -0.214974,-0.214973 -0.214974,-0.581531 0,-0.37896 0.20395,-0.600824 0.205327,-0.223242 0.552593,-0.223242 0.311436,0 0.491959,0.201193 0.181901,0.199815 0.181901,0.544325 z m -0.253559,-0.07441 q -0.0028,-0.208084 -0.117133,-0.332107 -0.112999,-0.124024 -0.300412,-0.124024 -0.212218,0 -0.340376,0.11989 -0.126779,0.119889 -0.146072,0.337619 z"
         style="fill:#ffffff"
         id="path91753" />
      <path
         d="m 85.90754,34.781189 q -0.214974,0 -0.323839,0.212217 -0.107486,0.21084 -0.107486,0.635276 0,0.423057 0.107486,0.635275 0.108865,0.210839 0.323839,0.210839 0.216352,0 0.323839,-0.210839 0.108865,-0.212218 0.108865,-0.635275 0,-0.424436 -0.108865,-0.635276 -0.107487,-0.212217 -0.323839,-0.212217 z m 0,-0.220486 q 0.345887,0 0.527788,0.274229 0.183279,0.272851 0.183279,0.79375 0,0.51952 -0.183279,0.793749 -0.181901,0.272851 -0.527788,0.272851 -0.345887,0 -0.529166,-0.272851 -0.181901,-0.274229 -0.181901,-0.793749 0,-0.520899 0.181901,-0.79375 0.183279,-0.274229 0.529166,-0.274229 z"
         style="fill:#ffffff"
         id="path91755" />
      <path
         d="m 87.10781,36.305298 h 0.290766 v 0.350021 H 87.10781 Z"
         style="fill:#ffffff"
         id="path91757" />
      <path
         d="m 88.007668,34.59791 h 1.092784 v 0.234266 h -0.837847 v 0.504362 q 0.06063,-0.02067 0.121267,-0.03032 0.06063,-0.01102 0.121268,-0.01102 0.344509,0 0.545702,0.188791 0.201194,0.188791 0.201194,0.511251 0,0.332107 -0.206706,0.516764 -0.206705,0.183279 -0.582909,0.183279 -0.129536,0 -0.264584,-0.02205 -0.133669,-0.02205 -0.276985,-0.06615 v -0.279742 q 0.124023,0.06752 0.256315,0.100597 0.132291,0.03307 0.279741,0.03307 0.238401,0 0.377583,-0.125401 0.139181,-0.125402 0.139181,-0.340376 0,-0.214973 -0.139181,-0.340375 -0.139182,-0.125401 -0.377583,-0.125401 -0.111621,0 -0.223242,0.02481 -0.110243,0.0248 -0.225998,0.07717 z"
         style="fill:#ffffff"
         id="path91759" />
      <path
         d="m 90.816108,34.59791 0.748275,0.767566 h -0.276986 l -0.606336,-0.544324 -0.606337,0.544324 h -0.276985 l 0.748274,-0.767566 z"
         style="fill:#ffffff"
         id="path91761" />
      <path
         d="m 92.404985,36.421053 h 0.971516 v 0.234266 h -1.306379 v -0.234266 q 0.158475,-0.163987 0.431326,-0.439594 0.274229,-0.276985 0.344509,-0.356912 0.13367,-0.150206 0.186035,-0.253558 0.05374,-0.104731 0.05374,-0.205328 0,-0.163986 -0.115755,-0.267339 -0.114378,-0.103353 -0.299035,-0.103353 -0.130913,0 -0.276985,0.04547 -0.144694,0.04548 -0.310058,0.137804 v -0.28112 q 0.16812,-0.06752 0.314192,-0.101974 0.146072,-0.03445 0.267339,-0.03445 0.319705,0 0.509874,0.159852 0.190169,0.159852 0.190169,0.427192 0,0.126779 -0.04823,0.241156 -0.04685,0.112999 -0.172255,0.267339 -0.03445,0.03996 -0.219108,0.231511 -0.184657,0.190169 -0.520898,0.5333 z"
         style="fill:#ffffff"
         id="path91763" />
      <path
         d="m 93.960789,36.305298 h 0.290765 v 0.350021 h -0.290765 z"
         style="fill:#ffffff"
         id="path91765" />
      <path
         d="m 95.097669,36.421053 h 0.971517 v 0.234266 h -1.30638 v -0.234266 q 0.158475,-0.163987 0.431326,-0.439594 0.274229,-0.276985 0.344509,-0.356912 0.13367,-0.150206 0.186035,-0.253558 0.05374,-0.104731 0.05374,-0.205328 0,-0.163986 -0.115755,-0.267339 -0.114377,-0.103353 -0.299034,-0.103353 -0.130914,0 -0.276986,0.04547 -0.144694,0.04548 -0.310058,0.137804 v -0.28112 q 0.16812,-0.06752 0.314192,-0.101974 0.146072,-0.03445 0.267339,-0.03445 0.319705,0 0.509874,0.159852 0.190169,0.159852 0.190169,0.427192 0,0.126779 -0.04823,0.241156 -0.04685,0.112999 -0.172255,0.267339 -0.03445,0.03996 -0.219108,0.231511 -0.184656,0.190169 -0.520898,0.5333 z"
         style="fill:#ffffff"
         id="path91767" />
      <path
         d="m 97.669086,34.59791 0.748274,0.767566 h -0.276985 l -0.606336,-0.544324 -0.606337,0.544324 h -0.276985 l 0.748274,-0.767566 z"
         style="fill:#ffffff"
         id="path91769" />
      <path
         d="m 99.591448,34.513849 q -0.184657,0.316949 -0.274229,0.627007 -0.08957,0.310059 -0.08957,0.628385 0,0.318327 0.08957,0.631141 0.09095,0.311437 0.274229,0.627007 h -0.220486 q -0.206706,-0.323838 -0.310058,-0.636653 -0.101975,-0.312814 -0.101975,-0.621495 0,-0.307302 0.101975,-0.618738 0.101974,-0.311437 0.310058,-0.636654 z"
         style="fill:#ffffff"
         id="path91771" />
      <path
         d="m 100.16747,36.421053 h 0.45475 v -1.569584 l -0.49471,0.09922 v -0.253559 l 0.49196,-0.09922 h 0.27836 v 1.823143 h 0.45475 v 0.234266 h -1.18511 z"
         style="fill:#ffffff"
         id="path91773" />
      <path
         d="m 102.32961,34.59791 h 0.23427 l -0.71658,2.319236 h -0.23427 z"
         style="fill:#ffffff"
         id="path91775" />
      <path
         d="m 103.10544,36.421053 h 0.97152 v 0.234266 h -1.30638 v -0.234266 q 0.15848,-0.163987 0.43133,-0.439594 0.27423,-0.276985 0.34451,-0.356912 0.13367,-0.150206 0.18603,-0.253558 0.0537,-0.104731 0.0537,-0.205328 0,-0.163986 -0.11575,-0.267339 -0.11438,-0.103353 -0.29904,-0.103353 -0.13091,0 -0.27698,0.04547 -0.14469,0.04548 -0.31006,0.137804 v -0.28112 q 0.16812,-0.06752 0.31419,-0.101974 0.14608,-0.03445 0.26734,-0.03445 0.31971,0 0.50988,0.159852 0.19017,0.159852 0.19017,0.427192 0,0.126779 -0.0482,0.241156 -0.0469,0.112999 -0.17225,0.267339 -0.0344,0.03996 -0.21911,0.231511 -0.18466,0.190169 -0.5209,0.5333 z"
         style="fill:#ffffff"
         id="path91777" />
      <path
         d="m 104.66125,36.305298 h 0.29076 v 0.350021 h -0.29076 z"
         style="fill:#ffffff"
         id="path91779" />
      <path
         d="m 105.79813,36.421053 h 0.97151 v 0.234266 h -1.30638 v -0.234266 q 0.15848,-0.163987 0.43133,-0.439594 0.27423,-0.276985 0.34451,-0.356912 0.13367,-0.150206 0.18603,-0.253558 0.0538,-0.104731 0.0538,-0.205328 0,-0.163986 -0.11576,-0.267339 -0.11437,-0.103353 -0.29903,-0.103353 -0.13091,0 -0.27699,0.04547 -0.14469,0.04548 -0.31005,0.137804 v -0.28112 q 0.16812,-0.06752 0.31419,-0.101974 0.14607,-0.03445 0.26734,-0.03445 0.3197,0 0.50987,0.159852 0.19017,0.159852 0.19017,0.427192 0,0.126779 -0.0482,0.241156 -0.0469,0.112999 -0.17226,0.267339 -0.0344,0.03996 -0.2191,0.231511 -0.18466,0.190169 -0.5209,0.5333 z"
         style="fill:#ffffff"
         id="path91781" />
      <path
         d="m 107.27814,34.513849 h 0.22049 q 0.2067,0.325217 0.30868,0.636654 0.10335,0.311436 0.10335,0.618738 0,0.308681 -0.10335,0.621495 -0.10198,0.312815 -0.30868,0.636653 h -0.22049 q 0.18328,-0.31557 0.27285,-0.627007 0.091,-0.312814 0.091,-0.631141 0,-0.318326 -0.091,-0.628385 -0.0896,-0.310058 -0.27285,-0.627007 z"
         style="fill:#ffffff"
         id="path91783" />
    </g>
    <rect
       style="fill:none;stroke:#00ff00;stroke-width:0.229416"
       id="rect846-7-1"
       width="34.072262"
       height="22.593105"
       x="125.13607"
       y="17.961464" />
    <text
       xml:space="preserve"
       style="font-style:normal;font-weight:normal;font-size:5.64444px;line-height:1.25;font-family:sans-serif;fill:#000000;fill-opacity:1;stroke:none;stroke-width:0.264583"
       x="136.53297"
       y="23.908249"
       id="text2324-6-6"><tspan
         sodipodi:role="line"
         id="tspan2322-2-5"
         style="font-size:5.64444px;fill:#ffffff;stroke-width:0.264583"
         x="136.53297"
         y="23.908249">FBO</tspan></text>
  </g>
</svg>
